<mxfile host="app.diagrams.net" modified="2024-02-13T19:08:35.112Z" agent="Mozilla/5.0 (Macintosh; Intel Mac OS X 10_15_7) AppleWebKit/537.36 (KHTML, like Gecko) Chrome/121.0.0.0 Safari/537.36" etag="-fDMu_NAT5GL0k4Y1u5N" version="23.1.1" type="github">
  <diagram id="R2lEEEUBdFMjLlhIrx00" name="Page-1">
    <mxGraphModel dx="2074" dy="1036" grid="1" gridSize="10" guides="1" tooltips="1" connect="1" arrows="1" fold="1" page="1" pageScale="1" pageWidth="850" pageHeight="1100" math="0" shadow="0" extFonts="Permanent Marker^https://fonts.googleapis.com/css?family=Permanent+Marker">
      <root>
        <mxCell id="0" />
        <mxCell id="1" parent="0" />
        <mxCell id="XllA5q66frfmDYmPdpHJ-1" value="Kund" style="rounded=1;whiteSpace=wrap;html=1;" vertex="1" parent="1">
          <mxGeometry x="90" y="100" width="120" height="60" as="geometry" />
        </mxCell>
        <mxCell id="XllA5q66frfmDYmPdpHJ-2" value="Produkt" style="rounded=1;whiteSpace=wrap;html=1;" vertex="1" parent="1">
          <mxGeometry x="400" y="100" width="120" height="60" as="geometry" />
        </mxCell>
        <mxCell id="XllA5q66frfmDYmPdpHJ-3" value="Order" style="rounded=1;whiteSpace=wrap;html=1;" vertex="1" parent="1">
          <mxGeometry x="80" y="580" width="120" height="60" as="geometry" />
        </mxCell>
        <mxCell id="XllA5q66frfmDYmPdpHJ-4" value="Faktura" style="rounded=1;whiteSpace=wrap;html=1;" vertex="1" parent="1">
          <mxGeometry x="520" y="370" width="120" height="60" as="geometry" />
        </mxCell>
        <mxCell id="XllA5q66frfmDYmPdpHJ-5" value="Lager" style="rounded=1;whiteSpace=wrap;html=1;" vertex="1" parent="1">
          <mxGeometry x="680" y="250" width="120" height="60" as="geometry" />
        </mxCell>
        <mxCell id="XllA5q66frfmDYmPdpHJ-6" value="Plocklista" style="rounded=1;whiteSpace=wrap;html=1;" vertex="1" parent="1">
          <mxGeometry x="340" y="750" width="120" height="60" as="geometry" />
        </mxCell>
        <mxCell id="XllA5q66frfmDYmPdpHJ-7" value="Beställer" style="rhombus;whiteSpace=wrap;html=1;" vertex="1" parent="1">
          <mxGeometry x="270" y="90" width="80" height="80" as="geometry" />
        </mxCell>
        <mxCell id="XllA5q66frfmDYmPdpHJ-8" value="" style="endArrow=none;html=1;rounded=0;" edge="1" parent="1" source="XllA5q66frfmDYmPdpHJ-1" target="XllA5q66frfmDYmPdpHJ-7">
          <mxGeometry width="50" height="50" relative="1" as="geometry">
            <mxPoint x="400" y="550" as="sourcePoint" />
            <mxPoint x="450" y="500" as="targetPoint" />
          </mxGeometry>
        </mxCell>
        <mxCell id="XllA5q66frfmDYmPdpHJ-11" value="" style="endArrow=none;html=1;rounded=0;entryX=1;entryY=0.5;entryDx=0;entryDy=0;exitX=0;exitY=0.5;exitDx=0;exitDy=0;" edge="1" parent="1" source="XllA5q66frfmDYmPdpHJ-2" target="XllA5q66frfmDYmPdpHJ-7">
          <mxGeometry width="50" height="50" relative="1" as="geometry">
            <mxPoint x="400" y="550" as="sourcePoint" />
            <mxPoint x="450" y="500" as="targetPoint" />
          </mxGeometry>
        </mxCell>
        <mxCell id="XllA5q66frfmDYmPdpHJ-12" value="Placerar" style="rhombus;whiteSpace=wrap;html=1;" vertex="1" parent="1">
          <mxGeometry x="110" y="410" width="80" height="80" as="geometry" />
        </mxCell>
        <mxCell id="XllA5q66frfmDYmPdpHJ-13" value="" style="endArrow=none;html=1;rounded=0;entryX=0.5;entryY=1;entryDx=0;entryDy=0;" edge="1" parent="1" source="XllA5q66frfmDYmPdpHJ-12" target="XllA5q66frfmDYmPdpHJ-1">
          <mxGeometry width="50" height="50" relative="1" as="geometry">
            <mxPoint x="400" y="550" as="sourcePoint" />
            <mxPoint x="450" y="500" as="targetPoint" />
          </mxGeometry>
        </mxCell>
        <mxCell id="XllA5q66frfmDYmPdpHJ-14" value="" style="endArrow=none;html=1;rounded=0;exitX=0.5;exitY=1;exitDx=0;exitDy=0;entryX=0.575;entryY=-0.05;entryDx=0;entryDy=0;entryPerimeter=0;" edge="1" parent="1" source="XllA5q66frfmDYmPdpHJ-12" target="XllA5q66frfmDYmPdpHJ-3">
          <mxGeometry width="50" height="50" relative="1" as="geometry">
            <mxPoint x="400" y="550" as="sourcePoint" />
            <mxPoint x="450" y="500" as="targetPoint" />
          </mxGeometry>
        </mxCell>
        <mxCell id="XllA5q66frfmDYmPdpHJ-15" value="betalar" style="rhombus;whiteSpace=wrap;html=1;" vertex="1" parent="1">
          <mxGeometry x="250" y="220" width="80" height="80" as="geometry" />
        </mxCell>
        <mxCell id="XllA5q66frfmDYmPdpHJ-16" value="" style="endArrow=none;html=1;rounded=0;" edge="1" parent="1" source="XllA5q66frfmDYmPdpHJ-15" target="XllA5q66frfmDYmPdpHJ-1">
          <mxGeometry width="50" height="50" relative="1" as="geometry">
            <mxPoint x="400" y="550" as="sourcePoint" />
            <mxPoint x="450" y="500" as="targetPoint" />
          </mxGeometry>
        </mxCell>
        <mxCell id="XllA5q66frfmDYmPdpHJ-17" value="" style="endArrow=none;html=1;rounded=0;" edge="1" parent="1" source="XllA5q66frfmDYmPdpHJ-4" target="XllA5q66frfmDYmPdpHJ-15">
          <mxGeometry width="50" height="50" relative="1" as="geometry">
            <mxPoint x="400" y="550" as="sourcePoint" />
            <mxPoint x="450" y="500" as="targetPoint" />
          </mxGeometry>
        </mxCell>
        <mxCell id="XllA5q66frfmDYmPdpHJ-18" value="" style="endArrow=none;html=1;rounded=0;" edge="1" parent="1" source="XllA5q66frfmDYmPdpHJ-19" target="XllA5q66frfmDYmPdpHJ-2">
          <mxGeometry width="50" height="50" relative="1" as="geometry">
            <mxPoint x="410" y="540" as="sourcePoint" />
            <mxPoint x="465.7142857142858" y="150" as="targetPoint" />
          </mxGeometry>
        </mxCell>
        <mxCell id="XllA5q66frfmDYmPdpHJ-19" value="placeras i" style="rhombus;whiteSpace=wrap;html=1;" vertex="1" parent="1">
          <mxGeometry x="240" y="390" width="80" height="80" as="geometry" />
        </mxCell>
        <mxCell id="XllA5q66frfmDYmPdpHJ-21" value="" style="endArrow=none;html=1;rounded=0;" edge="1" parent="1" source="XllA5q66frfmDYmPdpHJ-3" target="XllA5q66frfmDYmPdpHJ-19">
          <mxGeometry width="50" height="50" relative="1" as="geometry">
            <mxPoint x="400" y="550" as="sourcePoint" />
            <mxPoint x="450" y="500" as="targetPoint" />
          </mxGeometry>
        </mxCell>
        <mxCell id="XllA5q66frfmDYmPdpHJ-22" value="" style="endArrow=none;html=1;rounded=0;" edge="1" parent="1" source="XllA5q66frfmDYmPdpHJ-23" target="XllA5q66frfmDYmPdpHJ-4">
          <mxGeometry width="50" height="50" relative="1" as="geometry">
            <mxPoint x="400" y="550" as="sourcePoint" />
            <mxPoint x="450" y="500" as="targetPoint" />
          </mxGeometry>
        </mxCell>
        <mxCell id="XllA5q66frfmDYmPdpHJ-24" value="" style="endArrow=none;html=1;rounded=0;" edge="1" parent="1" source="XllA5q66frfmDYmPdpHJ-3" target="XllA5q66frfmDYmPdpHJ-23">
          <mxGeometry width="50" height="50" relative="1" as="geometry">
            <mxPoint x="200" y="582" as="sourcePoint" />
            <mxPoint x="440" y="468" as="targetPoint" />
          </mxGeometry>
        </mxCell>
        <mxCell id="XllA5q66frfmDYmPdpHJ-23" value="kopia av" style="rhombus;whiteSpace=wrap;html=1;" vertex="1" parent="1">
          <mxGeometry x="310" y="560" width="80" height="80" as="geometry" />
        </mxCell>
        <mxCell id="XllA5q66frfmDYmPdpHJ-25" value="" style="endArrow=none;html=1;rounded=0;" edge="1" parent="1" source="XllA5q66frfmDYmPdpHJ-26">
          <mxGeometry width="50" height="50" relative="1" as="geometry">
            <mxPoint x="400" y="550" as="sourcePoint" />
            <mxPoint x="490" y="160" as="targetPoint" />
          </mxGeometry>
        </mxCell>
        <mxCell id="XllA5q66frfmDYmPdpHJ-27" value="" style="endArrow=none;html=1;rounded=0;" edge="1" parent="1" source="XllA5q66frfmDYmPdpHJ-5" target="XllA5q66frfmDYmPdpHJ-26">
          <mxGeometry width="50" height="50" relative="1" as="geometry">
            <mxPoint x="600" y="192" as="sourcePoint" />
            <mxPoint x="490" y="160" as="targetPoint" />
          </mxGeometry>
        </mxCell>
        <mxCell id="XllA5q66frfmDYmPdpHJ-26" value="finns på" style="rhombus;whiteSpace=wrap;html=1;" vertex="1" parent="1">
          <mxGeometry x="520" y="160" width="80" height="80" as="geometry" />
        </mxCell>
        <mxCell id="XllA5q66frfmDYmPdpHJ-28" value="" style="endArrow=none;html=1;rounded=0;" edge="1" parent="1" source="XllA5q66frfmDYmPdpHJ-29" target="XllA5q66frfmDYmPdpHJ-4">
          <mxGeometry width="50" height="50" relative="1" as="geometry">
            <mxPoint x="400" y="550" as="sourcePoint" />
            <mxPoint x="450" y="500" as="targetPoint" />
          </mxGeometry>
        </mxCell>
        <mxCell id="XllA5q66frfmDYmPdpHJ-30" value="" style="endArrow=none;html=1;rounded=0;" edge="1" parent="1" source="XllA5q66frfmDYmPdpHJ-3" target="XllA5q66frfmDYmPdpHJ-29">
          <mxGeometry width="50" height="50" relative="1" as="geometry">
            <mxPoint x="200" y="582" as="sourcePoint" />
            <mxPoint x="440" y="468" as="targetPoint" />
          </mxGeometry>
        </mxCell>
        <mxCell id="XllA5q66frfmDYmPdpHJ-29" value="genererar" style="rhombus;whiteSpace=wrap;html=1;" vertex="1" parent="1">
          <mxGeometry x="390" y="420" width="80" height="80" as="geometry" />
        </mxCell>
        <mxCell id="XllA5q66frfmDYmPdpHJ-31" value="" style="endArrow=none;html=1;rounded=0;" edge="1" parent="1" source="XllA5q66frfmDYmPdpHJ-32" target="XllA5q66frfmDYmPdpHJ-6">
          <mxGeometry width="50" height="50" relative="1" as="geometry">
            <mxPoint x="400" y="550" as="sourcePoint" />
            <mxPoint x="450" y="500" as="targetPoint" />
          </mxGeometry>
        </mxCell>
        <mxCell id="XllA5q66frfmDYmPdpHJ-33" value="" style="endArrow=none;html=1;rounded=0;" edge="1" parent="1" source="XllA5q66frfmDYmPdpHJ-3" target="XllA5q66frfmDYmPdpHJ-32">
          <mxGeometry width="50" height="50" relative="1" as="geometry">
            <mxPoint x="186" y="640" as="sourcePoint" />
            <mxPoint x="354" y="750" as="targetPoint" />
          </mxGeometry>
        </mxCell>
        <mxCell id="XllA5q66frfmDYmPdpHJ-32" value="genererar" style="rhombus;whiteSpace=wrap;html=1;" vertex="1" parent="1">
          <mxGeometry x="220" y="650" width="80" height="80" as="geometry" />
        </mxCell>
        <mxCell id="XllA5q66frfmDYmPdpHJ-34" value="" style="endArrow=none;html=1;rounded=0;" edge="1" parent="1" source="XllA5q66frfmDYmPdpHJ-35" target="XllA5q66frfmDYmPdpHJ-5">
          <mxGeometry width="50" height="50" relative="1" as="geometry">
            <mxPoint x="400" y="550" as="sourcePoint" />
            <mxPoint x="450" y="500" as="targetPoint" />
          </mxGeometry>
        </mxCell>
        <mxCell id="XllA5q66frfmDYmPdpHJ-36" value="" style="endArrow=none;html=1;rounded=0;" edge="1" parent="1" source="XllA5q66frfmDYmPdpHJ-6" target="XllA5q66frfmDYmPdpHJ-35">
          <mxGeometry width="50" height="50" relative="1" as="geometry">
            <mxPoint x="420" y="750" as="sourcePoint" />
            <mxPoint x="720" y="310" as="targetPoint" />
          </mxGeometry>
        </mxCell>
        <mxCell id="XllA5q66frfmDYmPdpHJ-35" value="får en" style="rhombus;whiteSpace=wrap;html=1;" vertex="1" parent="1">
          <mxGeometry x="560" y="470" width="80" height="80" as="geometry" />
        </mxCell>
      </root>
    </mxGraphModel>
  </diagram>
</mxfile>
